<?xml version="1.0" encoding="UTF-8"?><svg xmlns="http://www.w3.org/2000/svg" xmlns:xlink="http://www.w3.org/1999/xlink" fill-opacity="1" color-rendering="auto" color-interpolation="auto" text-rendering="auto" stroke="black" stroke-linecap="square" width="484" stroke-miterlimit="10" shape-rendering="auto" stroke-opacity="1" fill="black" stroke-dasharray="none" font-weight="normal" stroke-width="1" height="696" font-family="'Dialog'" font-style="normal" stroke-linejoin="miter" font-size="12px" stroke-dashoffset="0" image-rendering="auto">
  <!--Generated by ySVG 2.6-->
  <defs id="genericDefs"/>
  <g>
    <defs id="defs1">
      <clipPath clipPathUnits="userSpaceOnUse" id="clipPath1">
        <path d="M0 0 L484 0 L484 696 L0 696 L0 0 Z"/>
      </clipPath>
      <clipPath clipPathUnits="userSpaceOnUse" id="clipPath2">
        <path d="M365 77 L849 77 L849 773 L365 773 L365 77 Z"/>
      </clipPath>
    </defs>
    <g fill="white" text-rendering="geometricPrecision" shape-rendering="geometricPrecision" transform="translate(-365,-77)" stroke="white">
      <rect x="365" width="484" height="696" y="77" clip-path="url(#clipPath2)" stroke="none"/>
    </g>
    <g text-rendering="geometricPrecision" stroke-miterlimit="1.45" shape-rendering="geometricPrecision" transform="matrix(1,0,0,1,-365,-77)" stroke-linecap="butt">
      <rect x="445" y="92.32" clip-path="url(#clipPath2)" fill="none" width="160" rx="30" ry="30" height="60"/>
      <text x="511.0195" font-size="8px" y="125.4626" clip-path="url(#clipPath2)" font-family="sans-serif" stroke="none" xml:space="preserve">Начало</text>
    </g>
    <g text-rendering="geometricPrecision" stroke-miterlimit="1.45" shape-rendering="geometricPrecision" transform="matrix(1,0,0,1,-365,-77)" stroke-linecap="butt">
      <rect fill="none" x="445" width="160" height="60" y="167.9964" clip-path="url(#clipPath2)"/>
      <path fill="none" d="M455 167.9964 L455 227.9964 M595 167.9964 L595 227.9964 M455 167.9964 Z" clip-path="url(#clipPath2)"/>
      <text x="492.2715" font-size="8px" y="196.2386" clip-path="url(#clipPath2)" font-family="sans-serif" stroke="none" xml:space="preserve">Вызов субротины</text>
      <text x="514.1016" font-size="8px" y="206.0394" clip-path="url(#clipPath2)" font-family="sans-serif" stroke="none" xml:space="preserve">sub_1</text>
    </g>
    <g text-rendering="geometricPrecision" stroke-miterlimit="1.45" shape-rendering="geometricPrecision" transform="matrix(1,0,0,1,-365,-77)" stroke-linecap="butt">
      <path fill="none" d="M445 243.6728 L605 243.6728 L605 303.6728 L445 303.6728 Z" clip-path="url(#clipPath2)"/>
      <text x="475.5137" font-size="8px" y="276.8153" clip-path="url(#clipPath2)" font-family="sans-serif" stroke="none" xml:space="preserve">Сохранить ES, DS, AX, DX</text>
    </g>
    <g text-rendering="geometricPrecision" stroke-miterlimit="1.45" shape-rendering="geometricPrecision" transform="matrix(1,0,0,1,-365,-77)" stroke-linecap="butt">
      <path fill="none" d="M445 319.3491 L605 319.3491 L605 379.3491 L445 379.3491 Z" clip-path="url(#clipPath2)"/>
      <text x="485.0293" font-size="8px" y="352.4917" clip-path="url(#clipPath2)" font-family="sans-serif" stroke="none" xml:space="preserve">Поместить 0040 в DS</text>
    </g>
    <g text-rendering="geometricPrecision" stroke-miterlimit="1.45" shape-rendering="geometricPrecision" transform="matrix(1,0,0,1,-365,-77)" stroke-linecap="butt">
      <path fill="none" d="M445 470.7019 L605 470.7019 L605 530.7019 L445 530.7019 Z" clip-path="url(#clipPath2)"/>
      <text x="472.8105" font-size="8px" y="494.0437" clip-path="url(#clipPath2)" font-family="sans-serif" stroke="none" xml:space="preserve">Инкремент младшего слова</text>
      <text x="488.2461" font-size="8px" y="503.8445" clip-path="url(#clipPath2)" font-family="sans-serif" stroke="none" xml:space="preserve">счетчика реального</text>
      <text x="472.0449" font-size="8px" y="513.6453" clip-path="url(#clipPath2)" font-family="sans-serif" stroke="none" xml:space="preserve">времени по адресу DS:006С</text>
    </g>
    <g text-rendering="geometricPrecision" stroke-miterlimit="1.45" shape-rendering="geometricPrecision" transform="matrix(1,0,0,1,-365,-77)" stroke-linecap="butt">
      <path fill="none" d="M525 546.3783 L605 576.3783 L525 606.3783 L445 576.3783 Z" clip-path="url(#clipPath2)"/>
      <text x="495.0977" font-size="8px" y="569.7201" clip-path="url(#clipPath2)" font-family="sans-serif" stroke="none" xml:space="preserve">Младшее слово</text>
      <text x="471.1426" font-size="8px" y="579.5209" clip-path="url(#clipPath2)" font-family="sans-serif" stroke="none" xml:space="preserve">счетчика реального времени</text>
      <text x="515.9922" font-size="8px" y="589.3217" clip-path="url(#clipPath2)" font-family="sans-serif" stroke="none" xml:space="preserve"> = 0?</text>
    </g>
    <g text-rendering="geometricPrecision" stroke-miterlimit="1.45" shape-rendering="geometricPrecision" transform="matrix(1,0,0,1,-365,-77)" stroke-linecap="butt">
      <path fill="none" d="M605 606.3783 L765 606.3783 L765 666.3783 L605 666.3783 Z" clip-path="url(#clipPath2)"/>
      <text x="634.1719" font-size="8px" y="629.7201" clip-path="url(#clipPath2)" font-family="sans-serif" stroke="none" xml:space="preserve">Инкремент старшего слова</text>
      <text x="631.1426" font-size="8px" y="639.5209" clip-path="url(#clipPath2)" font-family="sans-serif" stroke="none" xml:space="preserve">счетчика реального времени</text>
      <text x="649.3691" font-size="8px" y="649.3217" clip-path="url(#clipPath2)" font-family="sans-serif" stroke="none" xml:space="preserve">по адресу DS:006E</text>
    </g>
    <g text-rendering="geometricPrecision" stroke-miterlimit="1.45" shape-rendering="geometricPrecision" transform="matrix(1,0,0,1,-365,-77)" stroke-linecap="butt">
      <path fill="none" d="M445 395.0255 L605 395.0255 L605 455.0255 L445 455.0255 Z" clip-path="url(#clipPath2)"/>
      <text x="484.1387" font-size="8px" y="428.1681" clip-path="url(#clipPath2)" font-family="sans-serif" stroke="none" xml:space="preserve">Поместить 0000 в ES </text>
    </g>
    <g text-rendering="geometricPrecision" stroke-miterlimit="1.45" shape-rendering="geometricPrecision" transform="matrix(1,0,0,1,-365,-77)" stroke-linecap="butt">
      <path fill="none" d="M664.64 319.3491 L644.64 319.3491 L644.64 379.3491 L664.64 379.3491" clip-path="url(#clipPath2)"/>
      <text x="650.64" font-size="8px" y="352.4917" clip-path="url(#clipPath2)" font-family="sans-serif" stroke="none" xml:space="preserve">0040 - Область данных BIOS</text>
    </g>
    <g text-rendering="geometricPrecision" stroke-miterlimit="1.45" shape-rendering="geometricPrecision" transform="matrix(1,0,0,1,-365,-77)" stroke-linecap="butt">
      <path fill="none" d="M664.64 395.0255 L644.64 395.0255 L644.64 455.0255 L664.64 455.0255" clip-path="url(#clipPath2)"/>
      <text x="650.64" font-size="8px" y="428.1681" clip-path="url(#clipPath2)" font-family="sans-serif" stroke="none" xml:space="preserve">0000 - Адрес вектора обработчиков прерываний</text>
    </g>
    <g text-rendering="geometricPrecision" stroke-miterlimit="1.45" shape-rendering="geometricPrecision" transform="matrix(1,0,0,1,-365,-77)" stroke-linecap="butt">
      <circle fill="none" r="30" clip-path="url(#clipPath2)" cx="525" cy="727.6"/>
      <text x="520.998" xml:space="preserve" y="732.3138" clip-path="url(#clipPath2)" font-family="sans-serif" stroke="none">A</text>
    </g>
    <g text-rendering="geometricPrecision" stroke-miterlimit="1.45" shape-rendering="geometricPrecision" transform="matrix(1,0,0,1,-365,-77)" stroke-linecap="butt">
      <path fill="none" d="M525 152.2876 L525 159.9553" clip-path="url(#clipPath2)"/>
    </g>
    <g text-rendering="geometricPrecision" stroke-miterlimit="1.45" shape-rendering="geometricPrecision" transform="matrix(1,0,0,1,-365,-77)" stroke-linecap="butt">
      <path d="M525 167.9553 L530 155.9553 L525 158.9553 L520 155.9553 Z" stroke="none" clip-path="url(#clipPath2)"/>
      <path fill="none" d="M525 227.9639 L525 235.6317" clip-path="url(#clipPath2)"/>
      <path d="M525 243.6317 L530 231.6317 L525 234.6317 L520 231.6317 Z" clip-path="url(#clipPath2)" stroke="none"/>
      <path fill="none" d="M525 303.6403 L525 311.3081" clip-path="url(#clipPath2)"/>
      <path d="M525 319.3081 L530 307.3081 L525 310.3081 L520 307.3081 Z" clip-path="url(#clipPath2)" stroke="none"/>
      <path fill="none" d="M525 530.6694 L525 538.3372" clip-path="url(#clipPath2)"/>
      <path d="M525 546.3372 L530 534.3372 L525 537.3372 L520 534.3372 Z" clip-path="url(#clipPath2)" stroke="none"/>
      <path fill="none" d="M604.9609 576.3783 L685 576.3783 L685 598.4076" clip-path="url(#clipPath2)"/>
      <path d="M685 606.4076 L690 594.4076 L685 597.4076 L680 594.4076 Z" clip-path="url(#clipPath2)" stroke="none"/>
      <text x="639.449" xml:space="preserve" y="568.5961" clip-path="url(#clipPath2)" font-family="sans-serif" stroke="none">да</text>
      <path fill="none" d="M525 379.3167 L525 386.9845" clip-path="url(#clipPath2)"/>
      <path d="M525 394.9845 L530 382.9845 L525 385.9845 L520 382.9845 Z" clip-path="url(#clipPath2)" stroke="none"/>
      <path fill="none" d="M525 454.9931 L525 462.6608" clip-path="url(#clipPath2)"/>
      <path d="M525 470.6608 L530 458.6608 L525 461.6608 L520 458.6608 Z" clip-path="url(#clipPath2)" stroke="none"/>
      <path fill="none" stroke-dasharray="6,2" d="M604.9827 349.3491 L644.6251 349.3491" clip-path="url(#clipPath2)"/>
      <path fill="none" stroke-dasharray="6,2" d="M604.9827 425.0255 L644.6251 425.0255" clip-path="url(#clipPath2)"/>
      <path fill="none" d="M685 666.3905 L685 678.768 L525 678.768 L525 689.6046" clip-path="url(#clipPath2)"/>
      <path d="M525 697.6046 L530 685.6046 L525 688.6046 L520 685.6046 Z" clip-path="url(#clipPath2)" stroke="none"/>
      <path fill="none" d="M445.0263 576.3783 L380.504 576.3783 L380.504 678.768 L525 678.768 L525 689.6046" clip-path="url(#clipPath2)"/>
      <path d="M525 697.6046 L530 685.6046 L525 688.6046 L520 685.6046 Z" clip-path="url(#clipPath2)" stroke="none"/>
    </g>
  </g>
</svg>
